<svg id="Group_9" data-name="Group 9" xmlns="http://www.w3.org/2000/svg" width="100" height="100" viewBox="0 0 100 100">
  <g id="Group_11" data-name="Group 11">
    <path id="Path_34" data-name="Path 34" d="M50,0A50,50,0,1,1,0,50,50,50,0,0,1,50,0Z" fill="red"/>
    <path id="Path_1" data-name="Path 1" d="M16.286,56.386v.005a9.438,9.438,0,0,0,8.34,9.336A9.475,9.475,0,0,0,40.9,67.649a9.475,9.475,0,0,0,16.27-1.923,9.438,9.438,0,0,0,8.34-9.336v-.005a9.341,9.341,0,0,0,2.513-12.217,9.343,9.343,0,0,0-2.684-12.342,9.179,9.179,0,0,0,.171-1.761,9.4,9.4,0,0,0-3.786-7.516v-.005A9.4,9.4,0,0,0,57.7,14.862,9.472,9.472,0,0,0,40.9,11.285a9.472,9.472,0,0,0-16.808,3.577,9.4,9.4,0,0,0-4.016,7.681v.005a9.4,9.4,0,0,0-3.786,7.516,9.113,9.113,0,0,0,.171,1.761,9.343,9.343,0,0,0-2.684,12.342,9.341,9.341,0,0,0,2.513,12.217Zm26.5,3.048,1.54-.765a3.832,3.832,0,0,1,1.694-.4h2.445a1.88,1.88,0,1,0,0-3.761H46.023a7.658,7.658,0,0,0-3.234.729V42.533a14.308,14.308,0,0,1,5.679-1.185,1.88,1.88,0,1,0,0-3.761,18.115,18.115,0,0,0-5.679.927V25.01A7.55,7.55,0,0,0,47.034,26.3h3.327a1.88,1.88,0,1,0,0-3.761H47.034a3.777,3.777,0,0,1-2.678-1.1l-1.567-1.558V16.9a5.679,5.679,0,0,1,11.019-1.9l-3.433-.023h-.014a1.88,1.88,0,1,0-.014,3.761l5.619.038h.014a1.884,1.884,0,0,0,.435-.055,5.613,5.613,0,0,1,1.518,3.816c0,.076-.005.159-.01.243L55.78,25.481a7.517,7.517,0,0,0-1.629,4.584H48.468a1.88,1.88,0,1,0,0,3.761h5.679v1.88a1.893,1.893,0,0,0,3.786,0V30.145a3.764,3.764,0,0,1,.816-2.332l1.343-1.687a5.555,5.555,0,0,1,1.26,5.917,1.876,1.876,0,0,0,.946,2.352,5.615,5.615,0,0,1,2.884,6.953H57.934a1.88,1.88,0,1,0,0,3.761H64.1a1.852,1.852,0,0,0,.16.236,5.552,5.552,0,0,1,1.249,3.525A5.612,5.612,0,0,1,64.3,52.334a7.581,7.581,0,0,0-6.367-3.465H54.148a1.889,1.889,0,0,1-1.893-1.88,1.893,1.893,0,0,0-3.786,0,5.666,5.666,0,0,0,5.679,5.641h3.786a3.778,3.778,0,0,1,3.786,3.761,5.649,5.649,0,0,1-4.17,5.43l-.6-2.978a1.892,1.892,0,0,0-3.712.738L54,63.341c-.01.032-.025.061-.033.093a5.664,5.664,0,0,1-5.494,4.239,5.766,5.766,0,0,1-1.013-.095l2.352-2.336a1.87,1.87,0,0,0,0-2.659,1.9,1.9,0,0,0-2.677,0l-3.048,3.027a5.589,5.589,0,0,1-1.293-3.579ZM21.965,41.347H16.61A5.614,5.614,0,0,1,19.495,34.4a1.876,1.876,0,0,0,.946-2.352,5.531,5.531,0,0,1,1.046-5.678l3.772,6.3a2.088,2.088,0,0,0,.149.214,7.639,7.639,0,0,0,1.2,1.192l-2.2,2.182a1.87,1.87,0,0,0,0,2.659,1.9,1.9,0,0,0,2.678,0l3.293-3.271a7.745,7.745,0,0,0,.937.061h2a1.88,1.88,0,1,0,0-3.761h-2a3.777,3.777,0,0,1-2.881-1.321l-4.554-7.613c-.015-.17-.027-.328-.027-.469a5.634,5.634,0,0,1,2.494-4.651l3.285,1.631a1.883,1.883,0,1,0,1.693-3.363l-3.177-1.578A5.681,5.681,0,0,1,39,16.9v6.935a7.55,7.55,0,0,0-4.245-1.294H33.324a1.88,1.88,0,1,0,0,3.761h1.434a3.777,3.777,0,0,1,2.678,1.1L39,28.963V40.118a6.645,6.645,0,0,1-4.833-.4,1.9,1.9,0,0,0-2.54.841,1.875,1.875,0,0,0,.847,2.523,10.421,10.421,0,0,0,4.633,1.081A10.542,10.542,0,0,0,39,43.975V50.75H34.941a3.768,3.768,0,0,1-3.386-2.079l-1.27-2.523a1.9,1.9,0,0,0-2.54-.842,1.875,1.875,0,0,0-.847,2.523l1.27,2.523a7.535,7.535,0,0,0,6.773,4.159H39v7.522a5.649,5.649,0,0,1-3.786,5.313V64.369A7.447,7.447,0,0,0,33,59.05l-2.123-2.108a1.9,1.9,0,0,0-2.677,0,1.871,1.871,0,0,0,0,2.66l2.123,2.108a3.725,3.725,0,0,1,1.109,2.66v2.979a5.651,5.651,0,0,1-3.6-3.914A1.89,1.89,0,0,0,26,62.022h-.069l-.176.01a5.666,5.666,0,0,1-5.679-5.641c0-.053,0-.112.007-.168l3.225-3.2a1.87,1.87,0,0,0,0-2.659,1.9,1.9,0,0,0-2.677,0l-2.589,2.571a5.622,5.622,0,0,1-1.752-4.062,5.552,5.552,0,0,1,1.249-3.525,1.934,1.934,0,0,0,.16-.236h4.27a1.88,1.88,0,1,0,0-3.761Z" transform="translate(8.426 10.617)" fill="#fff"/>
  </g>
</svg>
